<svg width="256" height="256" viewBox="0 0 256 256" fill="none" xmlns="http://www.w3.org/2000/svg">
<g clip-path="url(#clip0_1_3)">
<rect width="256" height="256" fill="black"/>
<rect x="47.3794" y="39.7562" width="29" height="2" transform="rotate(-15 47.3794 39.7562)" fill="#C7C7C7"/>
<rect x="37.3412" y="48.6576" width="53" height="2" transform="rotate(-15 37.3412 48.6576)" fill="#C7C7C7"/>
<rect x="32.1327" y="56.2649" width="67" height="2" transform="rotate(-15 32.1327 56.2649)" fill="#C7C7C7"/>
<rect x="29.8219" y="63.0957" width="75" height="2" transform="rotate(-15 29.8219 63.0957)" fill="#C7C7C7"/>
<rect x="27.5111" y="69.9266" width="83" height="2" transform="rotate(-15 27.5111 69.9266)" fill="#C7C7C7"/>
<rect x="26.1662" y="76.4985" width="89" height="2" transform="rotate(-15 26.1662 76.4985)" fill="#C7C7C7"/>
<rect x="24.8214" y="83.0706" width="95" height="2" transform="rotate(-15 24.8214 83.0706)" fill="#C7C7C7"/>
<rect x="23.4765" y="89.6426" width="101" height="2" transform="rotate(-15 23.4765 89.6426)" fill="#C7C7C7"/>
<rect x="25.0294" y="95.4382" width="101" height="2" transform="rotate(-15 25.0294 95.4382)" fill="#C7C7C7"/>
<rect x="26.5823" y="101.234" width="101" height="2" transform="rotate(-15 26.5823 101.234)" fill="#C7C7C7"/>
<rect x="28.1352" y="107.029" width="101" height="2" transform="rotate(-15 28.1352 107.029)" fill="#C7C7C7"/>
<rect x="29.6881" y="112.825" width="101" height="2" transform="rotate(-15 29.6881 112.825)" fill="#C7C7C7"/>
<rect x="31.2411" y="118.62" width="101" height="2" transform="rotate(-15 31.2411 118.62)" fill="#C7C7C7"/>
<rect x="32.794" y="124.416" width="101" height="2" transform="rotate(-15 32.794 124.416)" fill="#C7C7C7"/>
<rect x="34.3469" y="130.211" width="101" height="2" transform="rotate(-15 34.3469 130.211)" fill="#C7C7C7"/>
<rect x="35.8998" y="136.007" width="101" height="2" transform="rotate(-15 35.8998 136.007)" fill="#C7C7C7"/>
<rect x="41.3164" y="140.767" width="93" height="2" transform="rotate(-15 41.3164 140.767)" fill="#C7C7C7"/>
<rect x="44.8012" y="146.045" width="89" height="2" transform="rotate(-15 44.8012 146.045)" fill="#C7C7C7"/>
<rect x="51.1837" y="150.547" width="79" height="2" transform="rotate(-15 51.1837 150.547)" fill="#C7C7C7"/>
<rect x="57.5663" y="155.048" width="69" height="2" transform="rotate(-15 57.5663 155.048)" fill="#C7C7C7"/>
<rect x="64.9147" y="159.291" width="57" height="2" transform="rotate(-15 64.9147 159.291)" fill="#C7C7C7"/>
<rect x="76.1269" y="162.498" width="37" height="2" transform="rotate(-15 76.1269 162.498)" fill="#C7C7C7"/>
<rect x="119.327" y="62.9242" width="51" height="2" transform="rotate(75 119.327 62.9242)" fill="#C7C7C7"/>
<rect x="110.167" y="51.92" width="77" height="2" transform="rotate(75 110.167 51.92)" fill="#C7C7C7"/>
<rect x="102.042" y="44.7797" width="95" height="2" transform="rotate(75 102.042 44.7797)" fill="#C7C7C7"/>
<rect x="94.6937" y="40.537" width="107" height="2" transform="rotate(75 94.6937 40.537)" fill="#C7C7C7"/>
<rect x="88.3805" y="40.1581" width="111" height="2" transform="rotate(75 88.3805 40.1581)" fill="#C7C7C7"/>
<rect x="81.8085" y="38.8132" width="117" height="1.99999" transform="rotate(75 81.8085 38.8132)" fill="#C7C7C7"/>
<rect x="74.46" y="34.5706" width="129" height="2" transform="rotate(75 74.46 34.5706)" fill="#C7C7C7"/>
<rect x="68.6645" y="36.1235" width="129" height="2" transform="rotate(75 68.6645 36.1235)" fill="#C7C7C7"/>
<rect x="62.8689" y="37.6764" width="129" height="2" transform="rotate(75 62.8689 37.6764)" fill="#C7C7C7"/>
<rect x="57.0733" y="39.2294" width="129" height="2" transform="rotate(75 57.0733 39.2294)" fill="#C7C7C7"/>
<rect x="51.2778" y="40.7822" width="129" height="2" transform="rotate(75 51.2778 40.7822)" fill="#C7C7C7"/>
<rect x="46.2587" y="45.2329" width="123" height="2" transform="rotate(75 46.2587 45.2329)" fill="#C7C7C7"/>
<rect x="41.2396" y="49.6836" width="117" height="2" transform="rotate(75 41.2396 49.6836)" fill="#C7C7C7"/>
<rect x="36.7381" y="56.0662" width="107" height="2" transform="rotate(75 36.7381 56.0662)" fill="#C7C7C7"/>
<rect x="32.7543" y="64.3806" width="93" height="2" transform="rotate(75 32.7543 64.3806)" fill="#C7C7C7"/>
<rect x="28.5117" y="71.729" width="81" height="2" transform="rotate(75 28.5117 71.729)" fill="#C7C7C7"/>
<rect x="25.822" y="84.873" width="57" height="2" transform="rotate(75 25.822 84.873)" fill="#C7C7C7"/>
<path d="M127.954 85.4594C137.407 120.739 121.745 154.416 94.5489 161.703C67.3527 168.99 36.9507 147.656 27.4975 112.377C18.0443 77.0967 33.7062 43.42 60.9024 36.1328C88.0986 28.8456 118.501 50.1795 127.954 85.4594Z" stroke="#544ACE" stroke-width="6"/>
<rect x="90.944" y="163.704" width="8" height="144" transform="rotate(-15 90.944 163.704)" fill="#544ACE"/>
<rect x="180.982" y="41.5094" width="29" height="2" transform="rotate(15 180.982 41.5094)" fill="#C7C7C7"/>
<rect x="167.838" y="44.1991" width="53" height="2" transform="rotate(15 167.838 44.1991)" fill="#C7C7C7"/>
<rect x="159.523" y="48.183" width="67" height="2" transform="rotate(15 159.523 48.183)" fill="#C7C7C7"/>
<rect x="154.107" y="52.9432" width="75" height="2" transform="rotate(15 154.107 52.9432)" fill="#C7C7C7"/>
<rect x="148.69" y="57.7035" width="83" height="2" transform="rotate(15 148.69 57.7035)" fill="#C7C7C7"/>
<rect x="144.239" y="62.7225" width="89" height="2" transform="rotate(15 144.239 62.7225)" fill="#C7C7C7"/>
<rect x="139.789" y="67.7417" width="95" height="2" transform="rotate(15 139.789 67.7417)" fill="#C7C7C7"/>
<rect x="135.338" y="72.7607" width="101" height="2" transform="rotate(15 135.338 72.7607)" fill="#C7C7C7"/>
<rect x="133.785" y="78.5563" width="101" height="2" transform="rotate(15 133.785 78.5563)" fill="#C7C7C7"/>
<rect x="132.232" y="84.3519" width="101" height="2" transform="rotate(15 132.232 84.3519)" fill="#C7C7C7"/>
<rect x="130.679" y="90.1475" width="101" height="2" transform="rotate(15 130.679 90.1475)" fill="#C7C7C7"/>
<rect x="129.126" y="95.943" width="101" height="2" transform="rotate(15 129.126 95.943)" fill="#C7C7C7"/>
<rect x="127.573" y="101.739" width="101" height="2" transform="rotate(15 127.573 101.739)" fill="#C7C7C7"/>
<rect x="126.02" y="107.534" width="101" height="2" transform="rotate(15 126.02 107.534)" fill="#C7C7C7"/>
<rect x="124.468" y="113.33" width="101" height="2" transform="rotate(15 124.468 113.33)" fill="#C7C7C7"/>
<rect x="122.915" y="119.125" width="101" height="2" transform="rotate(15 122.915 119.125)" fill="#C7C7C7"/>
<rect x="125.225" y="125.956" width="93" height="2" transform="rotate(15 125.225 125.956)" fill="#C7C7C7"/>
<rect x="125.604" y="132.269" width="89" height="2" transform="rotate(15 125.604 132.269)" fill="#C7C7C7"/>
<rect x="128.881" y="139.359" width="79" height="2" transform="rotate(15 128.881 139.359)" fill="#C7C7C7"/>
<rect x="132.158" y="146.449" width="69" height="2" transform="rotate(15 132.158 146.449)" fill="#C7C7C7"/>
<rect x="136.4" y="153.797" width="57" height="2" transform="rotate(15 136.4 153.797)" fill="#C7C7C7"/>
<rect x="144.507" y="162.181" width="37" height="2" transform="rotate(15 144.507 162.181)" fill="#C7C7C7"/>
<rect x="231.706" y="97.5474" width="51" height="2" transform="rotate(105 231.706 97.5474)" fill="#C7C7C7"/>
<rect x="229.275" y="83.4374" width="77" height="2" transform="rotate(105 229.275 83.4374)" fill="#C7C7C7"/>
<rect x="225.809" y="73.1912" width="95" height="2" transform="rotate(105 225.809 73.1912)" fill="#C7C7C7"/>
<rect x="221.567" y="65.8428" width="107" height="2" transform="rotate(105 221.567 65.8428)" fill="#C7C7C7"/>
<rect x="216.289" y="62.358" width="111" height="2" transform="rotate(105 216.289 62.358)" fill="#C7C7C7"/>
<rect x="211.27" y="57.9072" width="117" height="1.99999" transform="rotate(105 211.27 57.9072)" fill="#C7C7C7"/>
<rect x="207.027" y="50.5588" width="129" height="2" transform="rotate(105 207.027 50.5588)" fill="#C7C7C7"/>
<rect x="201.231" y="49.0059" width="129" height="2" transform="rotate(105 201.231 49.0059)" fill="#C7C7C7"/>
<rect x="195.436" y="47.453" width="129" height="2" transform="rotate(105 195.436 47.453)" fill="#C7C7C7"/>
<rect x="189.64" y="45.9" width="129" height="2" transform="rotate(105 189.64 45.9)" fill="#C7C7C7"/>
<rect x="183.845" y="44.3472" width="129" height="2" transform="rotate(105 183.845 44.3472)" fill="#C7C7C7"/>
<rect x="177.273" y="45.692" width="123" height="2" transform="rotate(105 177.273 45.692)" fill="#C7C7C7"/>
<rect x="170.701" y="47.0369" width="117" height="2" transform="rotate(105 170.701 47.0369)" fill="#C7C7C7"/>
<rect x="163.611" y="50.3136" width="107" height="2" transform="rotate(105 163.611 50.3136)" fill="#C7C7C7"/>
<rect x="156.004" y="55.5222" width="93" height="2" transform="rotate(105 156.004 55.5222)" fill="#C7C7C7"/>
<rect x="148.655" y="59.7648" width="81" height="2" transform="rotate(105 148.655 59.7648)" fill="#C7C7C7"/>
<rect x="139.754" y="69.803" width="57" height="2" transform="rotate(105 139.754 69.803)" fill="#C7C7C7"/>
<path d="M227.91 121.377C218.456 156.656 188.054 177.99 160.858 170.703C133.662 163.416 118 129.739 127.453 94.4594C136.907 59.1795 167.308 37.8456 194.505 45.1328C221.701 52.42 237.363 86.0967 227.91 121.377Z" stroke="#E7F881" stroke-width="6"/>
<rect x="156.736" y="170.634" width="8" height="144" transform="rotate(15 156.736 170.634)" fill="#E7F881"/>
</g>
<defs>
<clipPath id="clip0_1_3">
<rect width="256" height="256" fill="white"/>
</clipPath>
</defs>
</svg>
