<svg width="100" height="100" viewBox="0 0 100 100" fill="none" xmlns="http://www.w3.org/2000/svg">
<path d="M34 78C34 80.1012 34.4139 82.1817 35.2179 84.1229C36.022 86.0641 37.2006 87.828 38.6863 89.3137C40.172 90.7994 41.9359 91.978 43.8771 92.7821C45.8183 93.5861 47.8989 94 50 94C52.1012 94 54.1817 93.5861 56.1229 92.7821C58.0641 91.978 59.828 90.7994 61.3137 89.3137C62.7994 87.828 63.978 86.0641 64.7821 84.1229C65.5861 82.1817 66 80.1011 66 78L50 78L34 78Z" fill="white"/>
<path fill-rule="evenodd" clip-rule="evenodd" d="M30.6913 8C22.7849 8 17.0393 15.513 19.1104 23.1434L34 78H66L80.8897 23.1434C82.9607 15.513 77.2151 8 69.3087 8H30.6913ZM64 14H59L60.5 71H62.5L64 14ZM53 14H58L56.5 71H54.5L53 14ZM52 14H47L48.5 71H50.5L52 14ZM41 14H46L44.5 71H42.5L41 14ZM40 14H35L36.5 71H38.5L40 14Z" fill="#DBEE67"/>
</svg>
